<svg width="323" height="323" viewBox="0 0 323 323" fill="none" xmlns="http://www.w3.org/2000/svg">
<path opacity="0.2" fill-rule="evenodd" clip-rule="evenodd" d="M206.015 217.683C184.324 253.014 155.474 286.424 118.256 304.629C104.716 311.254 90.4908 314.46 75.9574 317.872C74.9387 318.113 73.9124 317.478 73.6691 316.455C73.4301 315.43 74.0648 314.403 75.0903 314.164C89.3423 310.816 103.303 307.705 116.582 301.208C153.272 283.261 181.628 250.23 202.962 215.383L202.452 215.011C196.908 210.993 193.844 202.227 193.007 191.654C191.806 176.498 194.973 157.639 200.386 145.107C202.819 139.476 205.741 135.103 208.867 132.737C211.304 130.891 213.898 130.18 216.546 130.747C222.189 131.958 225.36 137.751 226.248 146.077C228.111 163.491 220.61 192.169 214.206 203.675C212.205 207.268 210.134 210.86 207.988 214.432C208.943 215.165 209.882 215.879 210.827 216.532C213.523 218.385 216.312 219.756 220.084 219.622C225.962 219.406 231.597 216.703 236.763 212.898C244.822 206.954 251.721 198.299 256.553 191.498C283.459 153.619 284.795 114.093 277.665 79.3035C270.457 44.1707 254.648 13.8194 247.468 -5.32354C247.097 -6.30746 247.599 -7.40222 248.583 -7.77348C249.567 -8.14473 250.666 -7.64471 251.033 -6.65828C258.26 12.6076 274.142 43.1724 281.392 78.5407C288.719 114.252 287.278 154.819 259.661 193.704C254.629 200.789 247.417 209.774 239.025 215.963C233.213 220.244 226.836 223.185 220.22 223.427C214.283 223.642 210.307 220.925 206.015 217.683ZM204.94 212.11L204.684 211.928C199.837 208.417 197.535 200.599 196.805 191.354C195.65 176.79 198.679 158.665 203.886 146.618C205.668 142.486 207.694 139.087 209.919 136.865C211.757 135.034 213.689 134.029 215.746 134.474C217.691 134.885 219.113 136.176 220.157 138.034C221.386 140.213 222.102 143.116 222.463 146.48C224.251 163.213 217.033 190.766 210.878 201.822C208.964 205.254 206.987 208.688 204.94 212.11Z" fill="#EFF3FF"/>
<path opacity="0.2" fill-rule="evenodd" clip-rule="evenodd" d="M68.8253 315.184C69.3772 315.809 70.373 316.421 71.4516 317.066C74.0191 318.605 77.2058 319.984 78.6814 320.695C79.6299 321.155 80.0217 322.295 79.5664 323.241C79.1068 324.189 77.9694 324.585 77.0209 324.126C75.2144 323.253 70.971 321.407 68.1487 319.477C66.6356 318.44 65.515 317.321 65.0442 316.325C64.2395 314.631 64.9362 312.88 67.5111 311.474C70.5581 309.813 77.0068 308.099 80.633 303.591C81.2891 302.773 82.4942 302.644 83.3086 303.303C84.1299 303.963 84.2602 305.162 83.5998 305.983C80.1405 310.278 74.4692 312.447 70.7738 314.117C70.0719 314.436 69.2867 314.901 68.8253 315.184Z" fill="#EFF3FF"/>
</svg>
