<svg width="213" height="318" viewBox="0 0 213 318" fill="none" xmlns="http://www.w3.org/2000/svg">
<path opacity="0.2" fill-rule="evenodd" clip-rule="evenodd" d="M133.015 217.683C111.324 253.014 82.4737 286.424 45.2565 304.629C31.7155 311.254 17.4908 314.46 2.95742 317.872C1.9387 318.113 0.912429 317.478 0.669083 316.455C0.430106 315.43 1.06477 314.403 2.09033 314.164C16.3423 310.816 30.3031 307.705 43.5823 301.208C80.2715 283.261 108.628 250.23 129.962 215.383L129.452 215.011C123.908 210.993 120.844 202.227 120.007 191.654C118.806 176.498 121.973 157.639 127.386 145.107C129.819 139.476 132.741 135.103 135.867 132.737C138.304 130.891 140.898 130.18 143.546 130.747C149.189 131.958 152.36 137.751 153.248 146.077C155.111 163.491 147.61 192.169 141.206 203.675C139.205 207.268 137.134 210.86 134.988 214.432C135.943 215.165 136.882 215.879 137.827 216.532C140.523 218.385 143.312 219.756 147.084 219.622C152.962 219.406 158.597 216.703 163.763 212.898C171.822 206.954 178.721 198.299 183.553 191.498C210.459 153.619 211.795 114.093 204.665 79.3035C197.457 44.1707 181.648 13.8194 174.468 -5.32354C174.097 -6.30746 174.599 -7.40222 175.583 -7.77348C176.567 -8.14473 177.666 -7.64471 178.033 -6.65828C185.26 12.6076 201.142 43.1724 208.392 78.5407C215.719 114.252 214.278 154.819 186.661 193.704C181.629 200.789 174.417 209.774 166.025 215.963C160.213 220.244 153.836 223.185 147.22 223.427C141.283 223.642 137.307 220.925 133.015 217.683ZM131.94 212.11L131.684 211.928C126.837 208.417 124.535 200.599 123.805 191.354C122.65 176.79 125.679 158.665 130.886 146.618C132.668 142.486 134.694 139.087 136.919 136.865C138.757 135.034 140.689 134.029 142.746 134.474C144.691 134.885 146.113 136.176 147.157 138.034C148.386 140.213 149.102 143.116 149.463 146.48C151.251 163.213 144.033 190.766 137.878 201.822C135.964 205.254 133.987 208.688 131.94 212.11Z" fill="#EFF3FF"/>
</svg>
