<svg width="72" height="72" viewBox="0 0 72 72" fill="none" xmlns="http://www.w3.org/2000/svg">
<circle cx="36" cy="36" r="36" fill="#11437C"/>
<g clip-path="url(#clip0_17_1683)">
<path d="M51.9758 37.182C50.8607 35.74 49.1779 34.7496 46.9276 34.2112C49.7932 32.7495 51.0526 30.2687 50.7068 26.7683C50.5912 25.4989 50.2404 24.3988 49.6536 23.4664C49.0664 22.5337 48.2739 21.7839 47.2733 21.2167C46.2734 20.6488 45.186 20.2164 44.0134 19.9184C42.8406 19.6203 41.4941 19.4039 39.9748 19.2694V12H35.5328V19.0674C34.7636 19.0674 33.5906 19.0866 32.0138 19.1251V12H27.5712V19.2694C26.9364 19.2887 26.0038 19.2985 24.7731 19.2985L18.6577 19.2694V24.0004H21.8595C23.3211 24.0004 24.1769 24.6544 24.4268 25.9619V34.2411C24.6194 34.2411 24.7731 34.251 24.8886 34.2701H24.4268V45.8661C24.2731 46.8466 23.7155 47.3374 22.7539 47.3374H19.5523L18.6579 52.6164H24.4273C24.7928 52.6164 25.3213 52.6213 26.0139 52.63C26.7061 52.6397 27.2251 52.6445 27.5714 52.6445V60.0003H32.0147V52.731C32.8222 52.7507 33.9952 52.7601 35.5337 52.7601V60.0003H39.9758V52.6445C41.5531 52.5677 42.952 52.4243 44.1727 52.212C45.3939 51.9997 46.5625 51.6685 47.6776 51.2163C48.7927 50.7646 49.7252 50.2017 50.4751 49.5286C51.2254 48.8561 51.8451 48 52.3363 46.9613C52.826 45.9226 53.1389 44.7207 53.273 43.355C53.5241 40.6826 53.0912 38.6246 51.9758 37.182ZM32.1002 24.3168C32.2348 24.3168 32.6146 24.312 33.2397 24.3023C33.865 24.2924 34.384 24.2829 34.7974 24.2732C35.211 24.2637 35.7687 24.2877 36.4709 24.3454C37.1728 24.4031 37.7641 24.4802 38.2447 24.5762C38.7254 24.6721 39.2547 24.8309 39.8311 25.052C40.4085 25.273 40.8698 25.5424 41.2155 25.8596C41.562 26.1769 41.8552 26.5809 42.0951 27.0714C42.3358 27.5617 42.456 28.1242 42.456 28.7587C42.456 29.2972 42.3697 29.7877 42.1968 30.2303C42.0242 30.6725 41.7639 31.0428 41.4182 31.3409C41.0723 31.639 40.7159 31.8989 40.3504 32.1199C39.9854 32.3408 39.5186 32.5189 38.9515 32.6534C38.3845 32.788 37.8893 32.8938 37.4664 32.9706C37.0433 33.0476 36.5146 33.1006 35.8799 33.1293C35.245 33.158 34.7641 33.1776 34.4374 33.1871C34.1103 33.1966 33.6633 33.1966 33.0958 33.1871C32.5282 33.1776 32.1969 33.1726 32.1005 33.1726V24.3167H32.1002V24.3168ZM44.2307 43.9611C44.0475 44.4036 43.8123 44.7885 43.524 45.1157C43.2352 45.442 42.8552 45.7308 42.3843 45.9804C41.9135 46.2308 41.4563 46.4324 41.0143 46.5862C40.5718 46.7407 40.0379 46.8746 39.4135 46.9904C38.7877 47.1059 38.24 47.1871 37.7683 47.2355C37.2974 47.2837 36.7351 47.322 36.081 47.3511C35.4274 47.3794 34.9175 47.394 34.5522 47.394C34.1868 47.394 33.7251 47.3888 33.1674 47.3794C32.6094 47.3704 32.2539 47.3655 32.1 47.3655V37.615C32.2536 37.615 32.7104 37.6056 33.4702 37.586C34.2301 37.5666 34.85 37.5576 35.3308 37.5576C35.8116 37.5576 36.4753 37.586 37.3218 37.6441C38.1674 37.7014 38.879 37.7875 39.4565 37.9029C40.0332 38.0185 40.6625 38.1961 41.3457 38.4368C42.0283 38.6771 42.5814 38.9703 43.0047 39.3164C43.4278 39.6632 43.7834 40.1048 44.0717 40.6435C44.3608 41.1818 44.505 41.7973 44.505 42.4898C44.5049 43.0288 44.4136 43.5185 44.2307 43.9611Z" fill="#F7931B"/>
</g>
<defs>
<clipPath id="clip0_17_1683">
<rect width="48" height="48" fill="white" transform="translate(12 12)"/>
</clipPath>
</defs>
</svg>
