<svg width="36" height="48" viewBox="0 0 36 48" fill="none" xmlns="http://www.w3.org/2000/svg">
<path d="M33.9758 25.182C32.8607 23.74 31.1779 22.7496 28.9276 22.2112C31.7932 20.7495 33.0526 18.2687 32.7068 14.7683C32.5912 13.4989 32.2404 12.3988 31.6536 11.4664C31.0664 10.5337 30.2739 9.78391 29.2733 9.21669C28.2734 8.64876 27.186 8.21642 26.0134 7.91836C24.8406 7.6203 23.4941 7.40388 21.9748 7.2694V0L17.5328 0V7.06743C16.7636 7.06743 15.5906 7.08663 14.0138 7.12512V0L9.57119 0V7.2694C8.93637 7.2887 8.0038 7.2985 6.77307 7.2985L0.657715 7.2694L0.657715 12.0004H3.85947C5.32107 12.0004 6.17685 12.6544 6.42682 13.9619L6.42682 22.2411C6.6194 22.2411 6.77307 22.251 6.88856 22.2701H6.42682V33.8661C6.27314 34.8466 5.71552 35.3374 4.75385 35.3374H1.5523L0.657917 40.6164H6.42733C6.79278 40.6164 7.3213 40.6213 8.01391 40.63C8.70611 40.6397 9.22514 40.6445 9.57139 40.6445V48.0003H14.0147V40.731C14.8222 40.7507 15.9952 40.7601 17.5337 40.7601V48.0003H21.9758V40.6445C23.5531 40.5677 24.952 40.4243 26.1727 40.212C27.3939 39.9997 28.5625 39.6685 29.6776 39.2163C30.7927 38.7646 31.7252 38.2017 32.4751 37.5286C33.2254 36.8561 33.8451 36 34.3363 34.9613C34.826 33.9226 35.1389 32.7207 35.273 31.355C35.5241 28.6826 35.0912 26.6246 33.9758 25.182ZM14.1002 12.3168C14.2348 12.3168 14.6146 12.312 15.2397 12.3023C15.865 12.2924 16.384 12.2829 16.7974 12.2732C17.211 12.2637 17.7687 12.2877 18.4709 12.3454C19.1728 12.4031 19.7641 12.4802 20.2447 12.5762C20.7254 12.6721 21.2547 12.8309 21.8311 13.052C22.4085 13.273 22.8698 13.5424 23.2155 13.8596C23.562 14.1769 23.8552 14.5809 24.0951 15.0714C24.3358 15.5617 24.456 16.1242 24.456 16.7587C24.456 17.2972 24.3697 17.7877 24.1968 18.2303C24.0242 18.6725 23.7639 19.0428 23.4182 19.3409C23.0723 19.639 22.7159 19.8989 22.3504 20.1199C21.9854 20.3408 21.5186 20.5189 20.9515 20.6534C20.3845 20.788 19.8893 20.8938 19.4664 20.9706C19.0433 21.0476 18.5146 21.1006 17.8799 21.1293C17.245 21.158 16.7641 21.1776 16.4374 21.1871C16.1103 21.1966 15.6633 21.1966 15.0958 21.1871C14.5282 21.1776 14.1969 21.1726 14.1005 21.1726V12.3167H14.1002V12.3168ZM26.2307 31.9611C26.0475 32.4036 25.8123 32.7885 25.524 33.1157C25.2352 33.442 24.8552 33.7308 24.3843 33.9804C23.9135 34.2308 23.4563 34.4324 23.0143 34.5862C22.5718 34.7407 22.0379 34.8746 21.4135 34.9904C20.7877 35.1059 20.24 35.1871 19.7683 35.2355C19.2974 35.2837 18.7351 35.322 18.081 35.3511C17.4274 35.3794 16.9175 35.394 16.5522 35.394C16.1868 35.394 15.7251 35.3888 15.1674 35.3794C14.6094 35.3704 14.2539 35.3655 14.1 35.3655L14.1 25.615C14.2536 25.615 14.7104 25.6056 15.4702 25.586C16.2301 25.5666 16.85 25.5576 17.3308 25.5576C17.8116 25.5576 18.4753 25.586 19.3218 25.6441C20.1674 25.7014 20.879 25.7875 21.4565 25.9029C22.0332 26.0185 22.6625 26.1961 23.3457 26.4368C24.0283 26.6771 24.5814 26.9703 25.0047 27.3164C25.4278 27.6632 25.7834 28.1048 26.0717 28.6435C26.3608 29.1818 26.505 29.7973 26.505 30.4898C26.5049 31.0288 26.4136 31.5185 26.2307 31.9611Z" fill="#F7931B"/>
</svg>
